<svg fill="none" height="64" viewBox="0 0 65 64" width="65" xmlns="http://www.w3.org/2000/svg"><path clip-rule="evenodd" d="m18.9365 18.6862c1.0414-1.0413 2.7299-1.0412 3.7712.0003l9.5423 9.5435 9.5423-9.5435c1.0413-1.0415 2.7297-1.0416 3.7712-.0003s1.0416 2.7298.0003 3.7712l-9.5428 9.5441 9.5418 9.5432c1.0413 1.0415 1.0412 2.7299-.0002 3.7712-1.0415 1.0414-2.7299 1.0412-3.7713-.0002l-9.5413-9.5427-9.5414 9.5427c-1.0413 1.0414-2.7297 1.0416-3.7712.0002-1.0415-1.0413-1.0416-2.7297-.0003-3.7712l9.5419-9.5432-9.5428-9.5441c-1.0413-1.0414-1.0412-2.7299.0003-3.7712z" fill="#7c7e92" fill-opacity=".56" fill-rule="evenodd"/><circle cx="32.25" cy="32" r="29.335" stroke="#7c7e92" stroke-opacity=".56" stroke-width="5.33"/></svg>