<svg fill="none" height="24" viewBox="0 0 24 24" width="24" xmlns="http://www.w3.org/2000/svg"><path clip-rule="evenodd" d="m5.29294 5.29285c.39055-.3905 1.02372-.39046 1.41421.00009l5.29085 5.29166 5.2909-5.29166c.3905-.39055 1.0237-.39059 1.4143-.00009.3905.39049.3905 1.02366 0 1.41421l-5.291 5.29184 5.2906 5.2913c.3905.3905.3904 1.0237-.0001 1.4142-.3906.3905-1.0238.3904-1.4143-.0001l-5.2904-5.2911-5.29035 5.2911c-.3905.3905-1.02366.3906-1.41421.0001s-.3906-1.0237-.0001-1.4142l5.29056-5.2913-5.29105-5.29184c-.3905-.39055-.39046-1.02372.00009-1.41421z" fill="#252849" fill-rule="evenodd"/></svg>