<svg fill="none" height="104" viewBox="0 0 104 104" width="104" xmlns="http://www.w3.org/2000/svg"><path clip-rule="evenodd" d="m47.4964 25.0092c-4.2181 0-7.6375 3.4194-7.6375 7.6375v25.5302l-2.0845-1.6356c-3.482-2.732-8.488-2.2865-11.4328 1.0175-2.5891 2.9048-2.8389 7.2095-.6032 10.3943l11.2673 16.0506c2.0024 2.8525 3.4316 6.0667 4.2081 9.4642 1.037 4.5366 5.0725 7.7541 9.7261 7.7541h14.9154c6.0637 0 11.322-4.1924 12.6732-10.1036l.6299-2.756c4.0256-5.4015 6.2005-11.9586 6.2005-18.696v-10.3697h-.0005v-.325c0-4.2181-3.4194-7.6375-7.6375-7.6375-.9538 0-1.8668.1748-2.7087.4942-.8872-3.2355-3.8491-5.613-7.3663-5.613-1.0045 0-1.9637.1939-2.8422.5464-1.0238-3.0112-3.8753-5.1776-7.2328-5.1776-.8521 0-1.6717.1395-2.437.397v-9.3345c0-4.2181-3.4194-7.6375-7.6375-7.6375zm27.787 33.9625v.7312 4.1438c0 1.4359-1.164 2.6-2.6 2.6-1.4359 0-2.6-1.1641-2.6-2.6v-4.1438-.7312-5.1188c0-1.3462-1.0913-2.4375-2.4375-2.4375-1.3461 0-2.4375 1.0913-2.4375 2.4375v3.25 2.6c0 1.4359-1.164 2.6-2.6 2.6-1.4359 0-2.6-1.1641-2.6-2.6v-2.6-3.25-4.6312c0-1.3462-1.0913-2.4375-2.4375-2.4375-1.3306 0-2.4122 1.0662-2.437 2.3909v1.1841h-.0005v6.7437c0 1.4359-1.164 2.6-2.6 2.6-1.4359 0-2.6-1.1641-2.6-2.6v-7.8812l.0005-.0825v-16.4925c0-1.3462-1.0913-2.4375-2.4375-2.4375s-2.4375 1.0913-2.4375 2.4375v30.875c0 .995-.5679 1.9027-1.4627 2.338-.8947.4353-1.9594.3217-2.7423-.2925l-6.2894-4.9348c-1.3221-1.0374-3.2229-.8682-4.341.3863-.9831 1.103-1.078 2.7374-.2291 3.9467l11.2673 16.0506c2.3894 3.4037 4.0947 7.2391 5.0214 11.2932.4965 2.1721 2.4287 3.7125 4.6568 3.7125h14.9154c3.6382 0 6.7932-2.5153 7.6039-6.062l.6398-2.7991c.1552-.679.4508-1.318.8678-1.8759 3.3707-4.5094 5.1921-9.9883 5.1921-15.6183v-5.7716c-.0003-.016-.0005-.0321-.0005-.0481v-4.875c0-1.3462-1.0913-2.4375-2.4375-2.4375-1.3461 0-2.4375 1.0913-2.4375 2.4375z" fill="#252849" fill-rule="evenodd"/><g stroke="#252849" stroke-linecap="round" stroke-width="5.2"><path d="m72.9029 37.8346c.7089-2.9456.9112-6.066.5202-9.2502-1.75-14.2524-14.7224-24.38756-28.9748-22.63759-14.2524 1.74998-24.3876 14.72239-22.6376 28.97479.5979 4.8697 2.5059 9.2587 5.3275 12.8572"/><path d="m34.1461 36.9727c-.5391-1.3921-.8698-2.892-.9521-4.4639-.4176-7.9665 5.7021-14.7631 13.6686-15.1806 7.9666-.4175 14.7631 5.7022 15.1806 13.6687.0824 1.5718-.0897 3.0982-.4803 4.5389"/></g></svg>