<svg fill="none" height="24" viewBox="0 0 24 24" width="24" xmlns="http://www.w3.org/2000/svg"><path clip-rule="evenodd" d="m6 1h12c2.2091 0 4 1.79086 4 4v14c0 2.2091-1.7909 4-4 4h-12c-2.20914 0-4-1.7909-4-4v-14c0-2.20914 1.79086-4 4-4zm0 2c-1.10457 0-2 .89543-2 2v14c0 1.1046.89543 2 2 2h12c1.1046 0 2-.8954 2-2v-14c0-1.10457-.8954-2-2-2zm4 4c0-.55228.4477-1 1-1h6c.5523 0 1 .44772 1 1 0 .55229-.4477 1-1 1h-6c-.5523 0-1-.44772-1-1zm1 4c-.5523 0-1 .4477-1 1s.4477 1 1 1h6c.5523 0 1-.4477 1-1s-.4477-1-1-1zm-1 6c0-.5523.4477-1 1-1h6c.5523 0 1 .4477 1 1s-.4477 1-1 1h-6c-.5523 0-1-.4477-1-1zm-3-9c.55228 0 1-.44772 1-1s-.44772-1-1-1-1 .44772-1 1 .44772 1 1 1zm1 4c0 .5523-.44772 1-1 1s-1-.4477-1-1 .44772-1 1-1 1 .4477 1 1zm-1 6c.55228 0 1-.4477 1-1s-.44772-1-1-1-1 .4477-1 1 .44772 1 1 1z" fill="#fff" fill-rule="evenodd"/></svg>