<svg fill="none" height="24" viewBox="0 0 24 24" width="24" xmlns="http://www.w3.org/2000/svg"><g fill="#fff"><path clip-rule="evenodd" d="m1 19c0 1.6569 1.34315 3 3 3h16c1.6569 0 3-1.3431 3-3v-10.02435c0-1.65685-1.3431-3-3-3h-2.2204l-.4295-1.70745c-.3354-1.33345-1.5343-2.2682-2.9093-2.2682h-4.88156c-1.375 0-2.57398.93475-2.90938 2.2682l-.42948 1.70745h-2.22038c-1.65685 0-3 1.34315-3 3zm3 1c-.55228 0-1-.4477-1-1v-10.02435c0-.55228.44771-1 1-1h2.68815c.64166 0 1.20119-.43621 1.35771-1.05849l.54358-2.16109c.11181-.44449.51146-.75607.9698-.75607h4.88156c.4583 0 .858.31158.9698.75607l.5435 2.16109c.1566.62228.7161 1.05849 1.3577 1.05849h2.6882c.5523 0 1 .44772 1 1v10.02435c0 .5523-.4477 1-1 1zm8-8c1.1046 0 2 .8954 2 2s-.8954 2-2 2-2-.8954-2-2 .8954-2 2-2zm0-2c2.2091 0 4 1.7909 4 4s-1.7909 4-4 4c-2.20914 0-4-1.7909-4-4s1.79086-4 4-4zm6 1.0312c.5523 0 1-.4477 1-1 0-.55224-.4477-.99995-1-.99995s-1 .44771-1 .99995c0 .5523.4477 1 1 1z" fill-rule="evenodd"/><path d="m6.40625 5.96875h12v2h-12z"/></g></svg>