<svg fill="none" height="24" viewBox="0 0 24 24" width="24" xmlns="http://www.w3.org/2000/svg"><g clip-rule="evenodd" fill="#3b3e5b" fill-rule="evenodd"><path d="m6 7.5h12 1c1.1046 0 2 .89543 2 2v8c0 1.1046-.8954 2-2 2h-14c-1.10457 0-2-.8954-2-2v-8c0-1.10457.89543-2 2-2zm1-2v-2c0-.55228-.44772-1-1-1s-1 .44772-1 1v2c-2.20914 0-4 1.79086-4 4v8c0 2.2091 1.79086 4 4 4h14c2.2091 0 4-1.7909 4-4v-8c0-2.20914-1.7909-4-4-4v-2c0-.55228-.4477-1-1-1s-1 .44772-1 1v2z"/><path d="m6 11.3125c0-.5523.44772-1 1-1s1 .4477 1 1-.44772 1-1 1-1-.4477-1-1zm6-1c-.5523 0-1 .4477-1 1s.4477 1 1 1 1-.4477 1-1-.4477-1-1-1zm4 1c0-.5523.4477-1 1-1s1 .4477 1 1-.4477 1-1 1-1-.4477-1-1z"/><path d="m7 14.8125c-.55228 0-1 .4477-1 1s.44772 1 1 1 1-.4477 1-1-.44772-1-1-1zm4 1c0-.5523.4477-1 1-1s1 .4477 1 1-.4477 1-1 1-1-.4477-1-1zm6-1c-.5523 0-1 .4477-1 1s.4477 1 1 1 1-.4477 1-1-.4477-1-1-1z"/></g></svg>
