<svg fill="none" height="32" viewBox="0 0 33 32" width="33" xmlns="http://www.w3.org/2000/svg"><path clip-rule="evenodd" d="m16.8939 3.08085c-.2515-.1078-.5363-.1078-.7878 0l-14.00002 6c-.36768.15758-.60608.51912-.60608.91915v3.1875c0 .5523.44772 1 1 1h1v1.6c0 .6988.51193 1.278 1.1812 1.383l-.36318 9.8295h-1.81802c-.55228 0-1 .4477-1 1s.44772 1 1 1h28c.5523 0 1-.4477 1-1s-.4477-1-1-1h-1.8179l-.3632-9.8295c.6692-.1051 1.1811-.6843 1.1811-1.383v-1.6h1c.5523 0 1-.4477 1-1v-3.1875c0-.40003-.2384-.76157-.6061-.91915zm10.6061 11.10665h-4v1h4zm-6-2h8v-1.5281l-13-5.57143-13 5.57143v1.5281h8 1 8zm0 2v1.6c0 .6988.5119 1.278 1.1812 1.383l-.3632 9.8295h-2.6359l-.3632-9.8295c.6692-.1051 1.1811-.6843 1.1811-1.383v-1.6zm3.182 3-.3626 9.8125h2.3613l-.3625-9.8125zm-19.182-3h4v1h-4zm7 0h-1v1.6c0 .6987-.5119 1.2779-1.1811 1.383l.3632 9.8295h2.6359l.3632-9.8295c-.6693-.105-1.1812-.6842-1.1812-1.383zm-5.81803 3h1.6362l.36255 9.8125h-2.3613zm7.81803-3v1h4v-1zm2.8182 3h-1.6362l-.3626 9.8125h2.3613zm-1.2121-10.10665c.2515-.1078.5363-.1078.7878 0l3.5 1.5c.5077.21756.7428.80544.5253 1.31307-.2176.50758-.8055.74278-1.3131.52518l-3.1061-1.33113-3.1061 1.33113c-.5076.2176-1.0955-.0176-1.313-.52518-.2176-.50763.0176-1.09551.5252-1.31307z" fill="#4caf50" fill-rule="evenodd"/></svg>