<svg fill="none" height="24" viewBox="0 0 24 24" width="24" xmlns="http://www.w3.org/2000/svg"><g stroke="#fff" stroke-width="2"><path d="m10.9799 1.99976c-.4473 0-.8643.21008-1.10858.55844l-1.26272 1.80053-2.05625 1.13361-2.30813.11669c-.44659.02259-.8507.25336-1.07434.61358l-.99256 1.59871c-.22363.36023-.23651.80108-.03424 1.17203l1.04542 1.91725v2.1783l-1.04542 1.9173c-.20227.3709-.18939.8118.03424 1.172l.99256 1.5987c.22364.3602.62775.591 1.07434.6136l2.30813.1167 2.11137 1.1336 1.26272 1.8005c.24436.3484.66126.5585 1.10856.5585h1.9851c.4473 0 .8643-.2101 1.1086-.5585l1.2627-1.8005 2.0563-1.1336 2.3081-.1167c.4466-.0226.8507-.2533 1.0743-.6136l.9926-1.5987c.2236-.3602.2365-.801.0342-1.172l-1.0454-1.9172v-2.1784l1.0454-1.91725c.2023-.37095.1894-.8118-.0342-1.17203l-.9926-1.59871c-.2236-.36022-.6277-.59099-1.0743-.61358l-2.3081-.11669-2.1114-1.13361-1.2627-1.80053c-.2443-.34836-.6613-.55844-1.1086-.55844z"/><path d="m10.7679 9.86578c.7624-.44017 1.7018-.44017 2.4642 0 .7623.44022 1.232 1.25362 1.232 2.13402 0 .8803-.4697 1.6938-1.232 2.1339-.7624.4402-1.7018.4402-2.4642 0-.7623-.4401-1.232-1.2536-1.232-2.1339 0-.8804.4697-1.6938 1.232-2.13402z"/></g></svg>