<svg fill="none" height="24" viewBox="0 0 24 24" width="24" xmlns="http://www.w3.org/2000/svg"><path clip-rule="evenodd" d="m3.64047 3.41821c1.34428-1.0758 3.05206-1.57242 4.75624-1.37621 1.29776.14942 2.57419.63499 3.59909 1.5149.9995-.87381 2.2296-1.3642 3.5385-1.5149 1.7022-.19599 3.4081.29929 4.7516 1.37258 1.5803 1.0885 2.3605 2.77947 2.615 4.45575.2554 1.68123.0017 3.44557-.5854 4.82557-.9283 2.1856-2.6903 4.0701-4.4054 5.525-1.7291 1.4668-3.4921 2.5646-4.5231 3.1585-.8633.4973-1.9162.494-2.7764-.0074-1.02233-.5959-2.76583-1.6937-4.48349-3.1587-1.70441-1.4537-3.45874-3.3321-4.4104-5.5065-.60759-1.3765-.868814-3.14217-.62752-4.8223.2406-1.67534 1.001-3.37365 2.55128-4.46629zm14.93523 2.76432c-.4517-.31789-1.0755-.20948-1.3934.24215-.3178.45163-.2094 1.07544.2422 1.39333.1685.11861.418.48132.527 1.08927.104.58052.0409 1.19272-.1846 1.65302-.243.4959-.038 1.095.458 1.338s1.095.0379 1.338-.4581c.4487-.9158.5205-1.9748.3572-2.88578-.1584-.88355-.5784-1.83273-1.3444-2.37189z" fill="#fff" fill-rule="evenodd"/></svg>