<svg fill="none" height="24" viewBox="0 0 24 24" width="24" xmlns="http://www.w3.org/2000/svg"><g stroke="#3b3e5b" stroke-linecap="round" stroke-linejoin="round" stroke-width="2"><path clip-rule="evenodd" d="m12.8878 20.5129c-.5525.3182-1.2229.3162-1.7737-.0048-1.98592-1.1576-6.75516-4.2563-8.48202-8.2037-1.06206-2.40442-.94942-6.30754 1.60919-8.08618 1.14186-.92424 2.59426-1.34936 4.04095-1.18279 1.44669.16656 2.80498.80379 3.71768 1.96457.9126-1.16078 2.2019-1.79801 3.6486-1.96457 1.4467-.16657 2.8991.25855 4.041 1.18279 2.623 1.77864 2.7356 5.66529 1.7057 8.08618-1.6787 3.9529-6.5045 7.0547-8.5074 8.2085z" fill-rule="evenodd"/><path d="m18 7.00024c.9345.65778 1.3391 2.62379.6648 3.99996"/></g></svg>