<svg fill="none" height="24" viewBox="0 0 24 24" width="24" xmlns="http://www.w3.org/2000/svg"><g stroke="#fff" stroke-width="2"><path d="m3 11.5c0-1.50487 1.24226-2.75 2.80597-2.75s2.80597 1.24513 2.80597 2.75c0 1.5049-1.24226 2.75-2.80597 2.75-1.56372 0-2.80597-1.2451-2.80597-2.75z"/><path d="m18 6.75c0 1.50487-1.2423 2.75-2.806 2.75s-2.8059-1.24513-2.8059-2.75 1.2422-2.75 2.8059-2.75 2.806 1.24513 2.806 2.75z"/><path d="m18 17.25c0 1.5049-1.2423 2.75-2.806 2.75s-2.8059-1.2451-2.8059-2.75 1.2422-2.75 2.8059-2.75 2.806 1.2451 2.806 2.75z"/></g><path d="m13.1811 8.8515c.4703-.2896.6167-.90559.3271-1.37586s-.9055-.61673-1.3758-.32714zm-1.0487-1.703-4.05971 2.5 1.04872 1.703 4.05969-2.5z" fill="#fff"/><path d="m12.6567 16-4.56716-3.5" stroke="#fff" stroke-width="2"/></svg>