<svg fill="none" height="32" viewBox="0 0 32 32" width="32" xmlns="http://www.w3.org/2000/svg"><path clip-rule="evenodd" d="m15 5c0 .55228.4477 1 1 1s1-.44772 1-1v-3c0-.55228-.4477-1-1-1s-1 .44772-1 1zm-9 15.7914c0-5.5229 4.4772-10 10-10s10 4.4771 10 10c0 .7598-.0846 1.4988-.2445 2.2086h-19.511c-.15994-.7098-.2445-1.4488-.2445-2.2086zm-1.97146.8336h-1.02854c-.55228 0-1-.4477-1-1s.44772-1 1-1h1.05596c.58646-6.0801 5.71013-10.83362 11.94404-10.83362 6.2339 0 11.3576 4.75352 11.944 10.83362h1.056c.5523 0 1 .4477 1 1s-.4477 1-1 1h-1.0285c-.0633.9204-.2304 1.8132-.4902 2.6663l-.2158.7087h-22.53102l-.21579-.7087c-.25976-.8531-.42692-1.7459-.49015-2.6663zm-.02854 5.375c-.55228 0-1 .4477-1 1s.44772 1 1 1h24c.5523 0 1-.4477 1-1s-.4477-1-1-1zm11-13.2086c0-.5523.4477-1 1-1 3.0294 0 5.664 1.6842 7.0211 4.1626.2652.4844.0876 1.0921-.3969 1.3574-.4844.2652-1.0921.0876-1.3574-.3968-1.0202-1.8633-2.9971-3.1232-5.2668-3.1232-.5523 0-1-.4477-1-1zm-3-7.7914c-.5523 0-1-.44772-1-1v-1c0-.55228.4477-1 1-1s1 .44772 1 1v1c0 .55228-.4477 1-1 1zm7-1c0 .55228.4477 1 1 1s1-.44772 1-1v-1c0-.55228-.4477-1-1-1s-1 .44772-1 1z" fill="#4caf50" fill-rule="evenodd"/></svg>