<svg fill="none" height="24" viewBox="0 0 24 24" width="24" xmlns="http://www.w3.org/2000/svg"><g clip-rule="evenodd" fill="#4caf50" fill-rule="evenodd"><path d="m3 16c0-.5523.44772-1 1-1h16c.5523 0 1 .4477 1 1s-.4477 1-1 1h-16c-.55228 0-1-.4477-1-1z"/><path d="m3 8c0-.55228.44772-1 1-1h16c.5523 0 1 .44772 1 1s-.4477 1-1 1h-16c-.55228 0-1-.44772-1-1z"/><path d="m15 9c.5523 0 1-.44772 1-1s-.4477-1-1-1-1 .44772-1 1 .4477 1 1 1zm0 2c1.6569 0 3-1.34315 3-3s-1.3431-3-3-3-3 1.34315-3 3 1.3431 3 3 3z"/><path d="m9 17c.55228 0 1-.4477 1-1s-.44772-1-1-1-1 .4477-1 1 .44772 1 1 1zm0 2c1.6569 0 3-1.3431 3-3s-1.3431-3-3-3c-1.65685 0-3 1.3431-3 3s1.34315 3 3 3z"/></g></svg>