<svg fill="none" height="104" viewBox="0 0 104 104" width="104" xmlns="http://www.w3.org/2000/svg"><path clip-rule="evenodd" d="m67.6001 12.675c0-2.8719-2.3282-5.20002-5.2-5.20002h-3.25c-2.8719 0-5.2 2.32812-5.2 5.20002v1.0562h-3.9v-1.0562c0-2.8719-2.3282-5.20002-5.2-5.20002h-3.25c-2.8719 0-5.2 2.32812-5.2 5.20002v1.0562h-24.4563v34.5313h8.8562v10.8875c-7.1797 0-12.99995 5.8203-12.99995 13v16.575c0 4.3078 3.49215 7.8 7.79995 7.8h5.2 5.2 52.0001 5.2 5.2c4.3078 0 7.8-3.4922 7.8-7.8v-16.575c0-7.1797-5.8203-13-13-13v-10.8875h8.8549v-34.5313h-24.4549zm-31.2 6.2562h-19.2563v24.1313h3.6562v-1.1375c0-9.1689 6.7801-16.7541 15.6001-18.0157zm5.2 4.7938h3.25v-11.05h-3.25zm8.45 5.2h-11.0501c-.8904 0-1.7599.0895-2.5999.26v16.8837c0 5.4407 3.3422 10.1008 8.0855 12.039.9164-3.2886 3.9337-5.7015 7.5144-5.7015 3.5808 0 6.5981 2.4129 7.5145 5.7015 4.7433-1.9382 8.0856-6.5983 8.0856-12.039v-16.8837c-.8401-.1705-1.7096-.26-2.6-.26h-11.05zm0-5.2v-4.7938h3.9v4.7938zm12.35 0h-3.25v-11.05h3.25zm5.2-4.7938v4.9781c8.8199 1.2616 15.6 8.8468 15.6 18.0157v1.1375h3.6549v-24.1313zm10.4 72.3938v-9.3998c-6.952 2.5593-14.3118 3.8748-21.7414 3.8748h-8.1929c-7.5453 0-15.0186-1.3568-22.0658-3.9952v9.5202zm-52.0001-15.1082c6.9922 2.892 14.4894 4.3832 22.0658 4.3832h8.1929c7.4593 0 14.842-1.4455 21.7414-4.2502v-17.1998-17.225c0-4.2531-2.0425-8.0292-5.2001-10.401v14.5447c0 8.2566-5.498 15.2291-13.0326 17.456-.3627 3.9711-3.7018 7.0815-7.7674 7.0815-4.0655 0-7.4046-3.1104-7.7673-7.0815-7.5346-2.2269-13.0326-9.1994-13.0326-17.456v-14.5447c-3.1576 2.3718-5.2001 6.1479-5.2001 10.401v17.225zm-5.2 15.1082v-16.7375h-7.8v14.1375c0 1.4359 1.1641 2.6 2.6 2.6zm-7.2966-21.9375h7.2966v-5.0375c-3.3351 0-6.1813 2.0932-7.2966 5.0375zm69.6967-5.0375v5.0375h7.2966c-1.1153-2.9443-3.9615-5.0375-7.2966-5.0375zm7.8 10.2375h-7.8v16.7375h5.2c1.4359 0 2.6-1.1641 2.6-2.6zm-39.0001-9.1813c-1.4359 0-2.5999-1.164-2.5999-2.6v-2.6c0-1.4359 1.164-2.6 2.5999-2.6 1.436 0 2.6001 1.1641 2.6001 2.6v2.6c0 1.436-1.1641 2.6-2.6001 2.6z" fill="#252849" fill-rule="evenodd"/></svg>