<svg fill="none" height="24" viewBox="0 0 24 24" width="24" xmlns="http://www.w3.org/2000/svg"><path clip-rule="evenodd" d="m5.88803 19.4932-1.91554-11.4932h-1.97249c-.55228 0-1-.44772-1-1s.44772-1 1-1h1.63916 3.125l1.17082-2.34164c.50818-1.01635 1.54697-1.65836 2.68332-1.65836h2.7639c1.1363 0 2.1751.64201 2.6833 1.65836l1.1708 2.34164h3.1247 1.639c.5523 0 1 .44772 1 1s-.4477 1-1 1h-1.9723l-1.9156 11.4932c-.2411 1.4466-1.4926 2.5068-2.9591 2.5068h-6.30579c-1.46652 0-2.71809-1.0602-2.95918-2.5068zm12.11207-11.4932h-12.00002l1.86073 11.1644c.08037.4822.49756.8356.9864.8356h6.30579c.4888 0 .906-.3534.9863-.8356zm-2.9999-2-.7236-1.44721c-.1694-.33879-.5156-.55279-.8944-.55279h-2.7639c-.3788 0-.72507.214-.89447.55279l-.7236 1.44721zm-5.0002 11c-.55229 0-1-.4477-1-1v-4c0-.5523.44771-1 1-1 .5523 0 1 .4477 1 1v4c0 .5523-.4477 1-1 1zm3-1c0 .5523.4477 1 1 1s1-.4477 1-1v-4c0-.5523-.4477-1-1-1s-1 .4477-1 1z" fill="#fff" fill-rule="evenodd"/></svg>