<svg fill="none" height="24" viewBox="0 0 24 24" width="24" xmlns="http://www.w3.org/2000/svg"><g fill="#fff"><path clip-rule="evenodd" d="m4 3.5h16c1.6569 0 3 1.34314 3 3v11c0 1.6569-1.3431 3-3 3h-16c-1.65685 0-3-1.3431-3-3v-11c0-1.65685 1.34315-3 3-3zm0 2c-.55228 0-1 .44772-1 1v11c0 .5523.44772 1 1 1h16c.5523 0 1-.4477 1-1v-11c0-.55228-.4477-1-1-1z" fill-rule="evenodd"/><path clip-rule="evenodd" d="m8.62521 10c.30302 0 .5897.1374.77951.3736l4.86428 6.0534 2.5919-3.0719c.19-.2252.4697-.3551.7643-.3551.2947 0 .5743.1299.7643.3551l3.375 4-1.5286 1.2898-2.6107-3.0942-2.6107 3.0942c-.1927.2284-.4775.3586-.7763.355-.2988-.0035-.5803-.1406-.7675-.3735l-4.84549-6.03-4.84549 6.03-1.55902-1.2528 5.625-7c.18981-.2362.47649-.3736.77951-.3736z" fill-rule="evenodd"/><circle cx="15" cy="9.5" r="2"/></g></svg>