<svg fill="none" height="24" viewBox="0 0 24 24" width="24" xmlns="http://www.w3.org/2000/svg"><path clip-rule="evenodd" d="m22 4c0 1.65685-1.3431 3-3 3-1.3062 0-2.4175-.83481-2.8293-2h-9.1707c-1.65685 0-3 1.34315-3 3v.25926c0 1.65685 1.34315 3.00004 3 3.00004h10.1296c2.6899 0 4.8704 2.1805 4.8704 4.8703 0 2.6899-2.1805 4.8704-4.8704 4.8704h-1.7154l.2929.2929c.3906.3905.3906 1.0237 0 1.4142-.3905.3905-1.0237.3905-1.4142 0l-2.7071-2.7071 2.7071-2.7071c.3905-.3905 1.0237-.3905 1.4142 0 .3906.3905.3906 1.0237 0 1.4142l-.2929.2929h1.7154c1.5853 0 2.8704-1.2851 2.8704-2.8704 0-1.5852-1.2851-2.8703-2.8704-2.8703h-10.1296c-2.76142 0-5-2.2386-5-5.00004v-.25926c0-2.76142 2.23858-5 5-5h9.1707c.4118-1.16519 1.5231-2 2.8293-2 1.6569 0 3 1.34315 3 3zm-17 19c1.65685 0 3-1.3431 3-3s-1.34315-3-3-3-3 1.3431-3 3 1.34315 3 3 3z" fill="#fff" fill-rule="evenodd"/></svg>