<svg fill="none" height="24" viewBox="0 0 24 24" width="24" xmlns="http://www.w3.org/2000/svg"><g stroke="#fff" stroke-linecap="round" stroke-linejoin="round" stroke-width="2"><path clip-rule="evenodd" d="m12.8879 20.5129c-.5525.3182-1.2229.3162-1.7737-.0048-1.9859-1.1576-6.75514-4.2563-8.48199-8.2037-1.06207-2.40442-.94943-6.30754 1.60918-8.08618 1.14186-.92424 2.59427-1.34936 4.04095-1.18279 1.44669.16656 2.80496.80379 3.71766 1.96457.9127-1.16078 2.202-1.79801 3.6487-1.96457 1.4466-.16657 2.8991.25855 4.0409 1.18279 2.623 1.77864 2.7356 5.66529 1.7057 8.08618-1.6787 3.9529-6.5045 7.0547-8.5074 8.2085z" fill-rule="evenodd"/><path d="m18 7.00024c.9345.65778 1.3391 2.62379.6648 3.99996"/></g></svg>