<svg fill="none" height="24" viewBox="0 0 24 24" width="24" xmlns="http://www.w3.org/2000/svg"><path clip-rule="evenodd" d="m9.65845 1.61429c.26875-.3832.72745-.61429 1.21945-.61429h2.1836c.492 0 .9507.23109 1.2194.61429l1.389 1.98058 2.3225 1.24698 2.539.12835c.4912.02485.9357.27869 1.1817.67494l1.0918 1.75858c.246.39625.2602.88119.0377 1.28923l-1.1499 2.10895v2.3963l1.1499 2.1089c.2225.408.2083.893-.0377 1.2892l-1.0918 1.7586c-.246.3963-.6905.6501-1.1817.675l-2.539.1283-2.2618 1.2469-1.389 1.9806c-.2688.3832-.7275.6143-1.2194.6143h-2.1837c-.492 0-.95067-.2311-1.21942-.6143l-1.38899-1.9806-2.32251-1.2469-2.53893-.1284c-.49126-.0248-.93578-.2787-1.18178-.6749l-1.09182-1.7586c-.245996-.3963-.260154-.8812-.03766-1.2892l1.14996-2.109v-2.3962l-1.14996-2.10895c-.222494-.40804-.208336-.89298.03766-1.28923l1.09182-1.75858c.246-.39625.69052-.65009 1.18178-.67494l2.53893-.12835 2.26188-1.24698zm4.07365 7.3861c-1.0718-.6188-2.3924-.6188-3.4642 0-1.07175.6188-1.732 1.76241-1.732 3.00001s.66025 2.3812 1.732 3c1.0718.6188 2.3924.6188 3.4642 0 1.0717-.6188 1.732-1.7624 1.732-3s-.6603-2.38121-1.732-3.00001z" fill="#fff" fill-rule="evenodd"/></svg>