<svg fill="none" height="28" viewBox="0 0 28 28" width="28" xmlns="http://www.w3.org/2000/svg"><path clip-rule="evenodd" d="m.650686 13.9999c.000024-.8677.703524-1.5712 1.571304-1.5712l10.34981.0003-.0003-10.34977c0-.86779.7034-1.571285 1.5712-1.57131.8678-.000024 1.5713.70343 1.5713 1.57122l.0003 10.34996 10.349.0003c.8678 0 1.5712.7035 1.5712 1.5713s-.7035 1.5712-1.5713 1.5712l-10.3488-.0003.0003 10.3488c0 .8678-.7035 1.5713-1.5712 1.5713-.8678.0001-1.5713-.7034-1.5713-1.5712l-.0003-10.349-10.34999-.0003c-.86779 0-1.571248-.7035-1.571224-1.5713z" fill="#4caf50" fill-rule="evenodd"/></svg>