<svg fill="none" height="32" viewBox="0 0 33 32" width="33" xmlns="http://www.w3.org/2000/svg"><path clip-rule="evenodd" d="m18.7489 2c-3.0379 0-5.6237 1.92654-6.606 4.62322-3.81153.91982-6.6429 4.35108-6.6429 8.44528 0 4.798 3.88953 8.6875 8.6875 8.6875.4458 0 .8842-.0336 1.3125-.0986v4.3426h-4c-.5523 0-1 .4477-1 1s.4477 1 1 1h5 5c.5523 0 1-.4477 1-1s-.4477-1-1-1h-4v-4.6569c.7734.2677 1.6033.4129 2.4655.4129 4.1611 0 7.5343-3.3732 7.5343-7.5342 0-1.9874-.7704-3.7958-2.0267-5.1412.1981-.65.3045-1.33923.3045-2.05189 0-3.88185-3.1468-7.02871-7.0287-7.02871zm-1.2489 19.1896c.0419.0132.0832.0293.1234.0481.7101.3322 1.503.5183 2.3421.5183 3.0565 0 5.5343-2.4777 5.5343-5.5342 0-1.6413-.7132-3.1147-1.8498-4.1296-.3177-.2837-.4208-.7375-.257-1.1306.2475-.5938.3846-1.24604.3846-1.93289 0-2.77728-2.2514-5.02871-5.0287-5.02871-2.3308 0-4.2936 1.58666-4.8624 3.74043-.1005.38053-.4149.66673-.8032.73116-3.16778.52569-5.5833 3.28021-5.5833 6.59691 0 3.6934 2.9941 6.6875 6.6875 6.6875.4497 0 .8885-.0442 1.3125-.1285v-4.8393c-.0077-.0073-.0154-.0147-.0229-.0223l-2.3401-2.34c-.3905-.3906-.3905-1.0237 0-1.4143.3905-.3905 1.0237-.3905 1.4142 0l.9488.9489v-2.648c0-.5523.4477-1 1-1s1 .4477 1 1v5.6482l.9491-.9491c.3905-.3905 1.0236-.3905 1.4142 0 .3905.3906.3905 1.0237 0 1.4143l-2.3401 2.34c-.0077.0077-.0154.0152-.0232.0225z" fill="#4caf50" fill-rule="evenodd"/></svg>