<svg fill="none" height="24" viewBox="0 0 24 24" width="24" xmlns="http://www.w3.org/2000/svg"><path clip-rule="evenodd" d="m6 22h12c1.6569 0 3-1.3431 3-3v-10.58579c0-.79564-.3161-1.55871-.8787-2.12132l-3.4142-3.41421c-.5626-.56261-1.3257-.87868-2.1213-.87868h-8.5858c-1.65685 0-3 1.34315-3 3v14c0 1.6569 1.34315 3 3 3zm-1-17c0-.55228.44772-1 1-1h7v4.6c0 .7732.6268 1.4 1.4 1.4h4.6v9c0 .5523-.4477 1-1 1h-12c-.55228 0-1-.4477-1-1zm13.9102 3c-.0492-.10799-.1176-.20738-.2031-.29289l-3.4142-3.41422c-.0855-.08551-.1849-.15393-.2929-.20307v3.91018z" fill="#fff" fill-rule="evenodd"/></svg>