<svg fill="none" height="24" viewBox="0 0 24 24" width="24" xmlns="http://www.w3.org/2000/svg"><path clip-rule="evenodd" d="m5 12c0-3.86599 3.13401-7 7-7 3.866 0 7 3.13401 7 7 0 1.5418-.4973 2.9646-1.3405 4.1205-.0587.0804-.1037.1667-.1353.256-.0246.0219-.0484.0452-.0712.0699-.3748.4056-.3498 1.0383.0559 1.4131l2.875 2.6563c.4056.3747 1.0383.3497 1.4131-.0559.3748-.4057.3498-1.0384-.0559-1.4131l-2.241-2.0705c.9476-1.4256 1.4999-3.1377 1.4999-4.9763 0-4.97056-4.0294-9-9-9-4.97056 0-9 4.02944-9 9 0 4.9706 4.02944 9 9 9 1.435 0 2.7943-.3366 4.0006-.9361.4946-.2457.6963-.8459.4505-1.3405s-.846-.6963-1.3406-.4505c-.9359.4651-1.9912.7271-3.1105.7271-3.86599 0-7-3.134-7-7z" fill="#7c7e92" fill-opacity=".56" fill-rule="evenodd"/></svg>