<svg fill="none" height="104" viewBox="0 0 104 104" width="104" xmlns="http://www.w3.org/2000/svg"><path clip-rule="evenodd" d="m29.3184 83.2h12.3316v13h-26c-1.436 0-2.6 1.164-2.6 2.6s1.164 2.6 2.6 2.6h26 20.8 26c1.4359 0 2.6-1.164 2.6-2.6s-1.1641-2.6-2.6-2.6h-26v-13h11.7c4.3078 0 7.8-3.4922 7.8-7.8v-15.6c0-4.3078-3.4922-7.8-7.8-7.8h-11.7v-8.5344l9.438-.66c1.9453-.136 3.7691-.9958 5.1119-2.4098l6.6279-6.9793c3.1528-3.3199 2.7816-8.6286-.8025-11.4774l-7.5348-5.9889c-1.5266-1.2134-3.4522-1.811-5.3975-1.6749l-7.443.5204v-6.47572c0-3.15907-2.561-5.72-5.72-5.72h-9.36c-3.1591 0-5.72 2.56096-5.72 5.72v7.93022l-8.1694.5713c-4.2973.3005-7.5374 4.0277-7.2369 8.3251l.9068 12.9683c.3005 4.2973 4.0278 7.5374 8.3251 7.2369l6.1744-.4317v7.0799h-12.3316c-1.95 0-3.8293.7304-5.2675 2.0473l-8.5184 7.8c-3.3767 3.0919-3.3767 8.4135 0 11.5054l8.5184 7.7999c1.4382 1.3169 3.3175 2.0474 5.2675 2.0474zm17.5316-38.6436v7.4436h10.4v-8.1708zm0-28.6698 10.4-.7272v-6.83942c0-.28719-.2328-.52-.52-.52h-9.36c-.2872 0-.52.23281-.52.52zm10.4 80.3134v-13h-10.4v13zm16.9-39c1.4359 0 2.6 1.164 2.6 2.6v15.6c0 1.4359-1.1641 2.6-2.6 2.6h-44.8316c-.65 0-1.2764-.2435-1.7558-.6825l-8.5184-7.8c-1.1256-1.0306-1.1256-2.8045 0-3.8351l8.5184-7.8c.4794-.4389 1.1058-.6824 1.7558-.6824h35.7316v10.4c0 1.4359 1.164 2.6 2.6 2.6 1.4359 0 2.6-1.1641 2.6-2.6v-10.4zm-42.719-32.4162c-.1001-1.4324.9799-2.6748 2.4123-2.775l2.8338-.1982.6797 9.7205c.1002 1.4324 1.3426 2.5124 2.7751 2.4123 1.4324-.1002 2.5124-1.3426 2.4122-2.7751l-.6797-9.7204 28.3913-1.9853c.6484-.0453 1.2903.1538 1.7992.5583l7.5348 5.989c1.1947.9496 1.3184 2.7191.2675 3.8258l-6.628 6.9793c-.4476.4713-1.0555.7579-1.7039.8033l-36.4124 2.5462c-1.4325.1001-2.6749-.9799-2.775-2.4123z" fill="#252849" fill-rule="evenodd"/></svg>