<svg fill="none" height="20" viewBox="0 0 20 20" width="20" xmlns="http://www.w3.org/2000/svg"><path clip-rule="evenodd" d="m0 10c0-5.52285 4.47715-10 10-10 5.5228 0 10 4.47715 10 10 0 5.5228-4.4772 10-10 10-5.52285 0-10-4.4772-10-10zm14.2071 4.2061c-.3905.3906-1.0237.3906-1.4142 0l-2.7923-2.7923-2.79334 2.7933c-.39053.3906-1.02369.3906-1.41422 0-.39052-.3905-.39052-1.0237 0-1.4142l2.79332-2.7933-2.79347-2.79347c-.39052-.39052-.39052-1.02369 0-1.41421.39053-.39053 1.02369-.39053 1.41422 0l2.79349 2.79347 2.7924-2.79247c.3906-.39052 1.0237-.39052 1.4143 0 .3905.39053.3905 1.02369 0 1.41422l-2.7925 2.79246 2.7923 2.7923c.3905.3905.3905 1.0237 0 1.4142z" fill="#252849" fill-rule="evenodd"/></svg>