<svg fill="none" height="32" viewBox="0 0 32 32" width="32" xmlns="http://www.w3.org/2000/svg"><path clip-rule="evenodd" d="m5 4c.55228 0 1 .44772 1 1v2.375h4.6492l.2739-.21913c1.441-1.15281 3.2315-1.78087 5.0769-1.78087s3.6359.62806 5.0769 1.78087l.2739.21913h4.6492v-2.375c0-.55228.4477-1 1-1s1 .44772 1 1v2.375 2.25 7.1042c.6224.7051 1 1.6314 1 2.6458v.009c1.1213.101 2 1.0434 2 2.191v2.6c0 1.215-.985 2.2-2.2 2.2h-1.8v.625c0 .5523-.4477 1-1 1s-1-.4477-1-1v-.625h-18v.625c0 .5523-.44772 1-1 1s-1-.4477-1-1v-.625h-1.8c-1.21501 0-2.2-.985-2.2-2.2v-2.6c0-1.1476.8787-2.09 2-2.191v-.009c0-1.0144.37764-1.9407 1-2.6458v-7.1042-2.25-2.375c0-.55228.44772-1 1-1zm21 5.625v-.25h-5.3508l-.8217-.65739c-1.0864-.86911-2.4362-1.34261-3.8275-1.34261s-2.7411.4735-3.8275 1.34261l-.8217.65739h-5.3508v.25 5.75h1 .45196c.41183-1.1652 1.52307-2 2.82924-2h2c1.3063 0 2.4175.8348 2.8293 2h1.779c.4118-1.1652 1.523-2 2.8293-2h2c1.3062 0 2.4174.8348 2.8292 2h.452 1zm2.8 14.75h-2.8-20-2.8c-.11046 0-.2-.0895-.2-.2v-2.6c0-.1105.08954-.2.2-.2h25.6c.1105 0 .2.0895.2.2v2.6c0 .1105-.0895.2-.2.2zm-1.8-5c0-1.1046-.8954-2-2-2h-1.2812-6-3.4376-5.99995-1.28125c-1.10457 0-2 .8954-2 2z" fill="#4caf50" fill-rule="evenodd"/></svg>