<svg fill="none" height="24" viewBox="0 0 24 24" width="24" xmlns="http://www.w3.org/2000/svg"><path clip-rule="evenodd" d="m2.56556 2.09931c.34578-.16678.75652-.12089 1.05696.1181l5.06098 4.02577 5.5559-4.05118c.3511-.25599.8273-.25599 1.1783 0l6.1715 4.5c.2581.18824.4108.48851.4108.80801v13.49999c0 .3764-.2113.7208-.5468.8914-.3354.1706-.7383.1384-1.0424-.0834l-5.5822-4.0704-5.58228 4.0704c-.36361.2651-.85953.2547-1.2117-.0254l-5.65714-4.5c-.23851-.1897-.37748-.4778-.37748-.7826v-13.49999c0-.3839.21978-.73392.56556-.9007zm11.26254 2.8678-4.18748 3.05339v11.0248l4.18748-3.0534zm2-.00065v11.02474l4.1719 3.042v-11.02475zm-11.8281.10679 3.64062 2.89595v10.9444l-3.64062-2.8959z" fill="#fff" fill-rule="evenodd"/></svg>