<svg fill="none" height="24" viewBox="0 0 24 24" width="24" xmlns="http://www.w3.org/2000/svg"><path clip-rule="evenodd" d="m14.8125 5.92188v-3.4339c0-.29475-.3327-.4666-.5731-.29598l-5.14107 3.7487c-.25816.18824-.41083.48851-.41083.80801v12.86069 1.9093c0 .2874.32416.4552.55882.2893l5.15538-3.7591c.2581-.1882.4108-.4885.4108-.808zm2 12.75392c0 .3195.1527.6198.4108.808l3.1875 2.3242c.3041.2218.707.254 1.0424.0834.3355-.1706.5468-.515.5468-.8914v-13.49999c0-.3195-.1527-.61977-.4108-.80801l-4.141-3.01948c-.2644-.19274-.6357-.00394-.6357.3232zm-13.18998-16.45839 2.6875 2.13778c.23851.18972.37748.47785.37748.7826v14.74391c0 .3349-.38693.5216-.64901.3131l-3.66101-2.9122c-.23851-.1897-.37748-.4778-.37748-.7826v-13.49999c0-.3839.21978-.73392.56556-.9007s.75652-.12089 1.05696.1181z" fill="#fff" fill-rule="evenodd"/></svg>