<svg fill="none" height="160" viewBox="0 0 160 160" width="160" xmlns="http://www.w3.org/2000/svg"><path clip-rule="evenodd" d="m80 160c44.183 0 80-35.817 80-80 0-44.1828-35.817-80-80-80-44.1828 0-80 35.8172-80 80 0 44.183 35.8172 80 80 80zm11.25-118.1887v13.7356 45.2761c0 1.278-.6107 2.479-1.6433 3.232l-20.6214 15.036c-.9387.664-2.2353-.007-2.2353-1.157v-7.637-51.4428c0-1.278.6107-2.4791 1.6433-3.232l20.5643-14.9948c.9614-.6825 2.2924.0049 2.2924 1.1839zm9.643 67.9837c-1.0323-.753-1.643-1.954-1.643-3.232v-58.7207c0-1.3086 1.485-2.0638 2.543-1.2928l16.564 12.0779c1.032.7529 1.643 1.954 1.643 3.232v53.9996c0 1.506-.845 2.884-2.187 3.566s-2.953.553-4.17-.334zm-43.6529-60.5149-10.75-8.5511c-1.2018-.956-2.8447-1.1395-4.2279-.4724-1.3831.6671-2.2622 2.0672-2.2622 3.6028v54c0 1.219.5559 2.3716 1.5099 3.1306l14.6441 11.648c1.0483.834 2.596.088 2.596-1.252v-58.9755c0-1.219-.5559-2.3715-1.5099-3.1304z" fill="#fff" fill-rule="evenodd"/></svg>